# xmcd CD database file
#
# Track frame offsets:
#	150
#	25375
#	37675
#	57250
#	80425
#	99850
#	117850
#	136450
#	158125
#	191650
#	205600
#
# Disc length: 3096 seconds
#
# Revision: 3
# Processed by: cddbd v1.5.2PL0 Copyright (c) Steve Scherf et al.
# Submitted via: CDex 1.70beta2
#
DISCID=840c160b
DTITLE=趙松庭 - 婺江風光
DYEAR=1994
DGENRE=Instrumental
TTITLE0=繡荷包
TTITLE1=流水板
TTITLE2=二凡
TTITLE3=婺江風光
TTITLE4=三五七
TTITLE5=採茶忙
TTITLE6=蔭中鳥
TTITLE7=早晨
TTITLE8=鷓鴣飛
TTITLE9=友誼列車
TTITLE10=幽蘭逢春
EXTD=YEAR: 1994
EXTT0=
EXTT1=
EXTT2=
EXTT3=
EXTT4=
EXTT5=
EXTT6=
EXTT7=
EXTT8=
EXTT9=
EXTT10=
PLAYORDER=
